<svg xmlns="http://www.w3.org/2000/svg" width="83.46" height="97" viewBox="0 0 83.46 97"><path d="M82.93,54.15c-1-1.36-3.68-2.29-6.24-2.19A10.43,10.43,0,0,0,68.36,57L60.54,62.1a6.05,6.05,0,0,0-4.84-2.3H46.52a8.54,8.54,0,0,1-2.82-1.2,10.88,10.88,0,0,0-5-1.8h-9c-4.22,0-8.22,3-10.26,4.94-.94.94-2.16,2.13-3.4,3.39-.41.42-.85.84-1.28,1.25L17,68.52l1.31-1.33c1-1,1.91-1.91,2.72-2.71l.58-.59c1.67-1.56,4.94-4.1,8.12-4.1h9a9.25,9.25,0,0,1,3.53,1.41,9.51,9.51,0,0,0,4.31,1.59H55.7a3,3,0,1,1,0,6H40.86v3H55.7a6.08,6.08,0,0,0,6.12-6.07,5.85,5.85,0,0,0-.06-.8v0h0v0l8.83-5.64.18-.29A7.5,7.5,0,0,1,76.64,55a7.89,7.89,0,0,1,3.22.57v.2H79.8a125.4,125.4,0,0,1-9.38,11.66c-.16.18-.33.3-.47.45-5,4.16-12.61,9.89-14.69,11.89H32.94a5.75,5.75,0,0,0-3.38,1l2.38,2.31a1.89,1.89,0,0,1,1-.29H56.1l.35-.29C58.64,81.28,70.62,71.19,72,70.05l.14-.15c.37-.4,9.14-9.88,11-14.22l.35-.81Z" transform="translate(0)" fill="#fff"/><path d="M52.64,50.48H49.58V34.37a11.52,11.52,0,0,0-1.77-6l2.6-1.61a14.57,14.57,0,0,1,2.23,7.65Z" transform="translate(0)" fill="#fff"/><path d="M43.46,0a15.3,15.3,0,1,0,15.3,15.3A15.31,15.31,0,0,0,43.46,0Zm0,27.53A12.24,12.24,0,1,1,55.7,15.3,12.16,12.16,0,0,1,43.46,27.53Z" transform="translate(0)" fill="#fff"/><path d="M60.53,62.79,41.2,59.46,29.74,57.79l1.73-5.43,5.62-1.87h2.84l4.94-3.29,3.53,1.76h3.16L56.16,52h4.66l8.64,6.91Z" transform="translate(0)" fill="#fff"/><path d="M61.82,65.72a5.51,5.51,0,0,0-.06-.8A5.85,5.85,0,0,1,61.82,65.72Z" transform="translate(0)" fill="#fff"/><path d="M76.64,55a7.46,7.46,0,0,0-5.84,3.9l-.2.29-8.84,5.64s0,0,0,0l8.83-5.65.18-.3A7.51,7.51,0,0,1,76.64,55a7.9,7.9,0,0,1,3.22.56h0A7.9,7.9,0,0,0,76.64,55Z" transform="translate(0)" fill="#fff"/><path d="M69.47,58,60,64l9.47-5.87c4.19-6.76,11.07-4.64,12.22-3.15l0,0C80.59,53.45,73.67,51.24,69.47,58Z" transform="translate(0)" fill="#fff"/><path d="M61.75,64.88v0s0,0,0,0Z" transform="translate(0)" fill="#fff"/><path d="M11.34,62.08,0,73.42,23.58,97,34.92,85.66Zm-7,11.34,7-7L30.59,85.66l-7,7Z" transform="translate(0)" fill="#fff"/><rect x="9.81" y="71.26" width="3.06" height="4.33" transform="translate(-48.6 29.52) rotate(-45)" fill="#fff"/><path d="M67.94,28.79A12.35,12.35,0,0,0,55.86,41.3v1.49h9a12,12,0,0,0,12-12.2v-1.8Zm-3.06,13H57.23a10.9,10.9,0,0,1,10.71-11h7.65A10.9,10.9,0,0,1,64.88,41.79Z" transform="translate(0)" fill="#fff"/><path d="M57.23,41.79h7.65a10.9,10.9,0,0,0,10.71-11H67.94A10.9,10.9,0,0,0,57.23,41.79Zm7.65-2h-6c.73-4,4.51-8,9.05-8h6A8.93,8.93,0,0,1,64.88,39.79Z" transform="translate(0)" fill="#fff"/><path d="M48.05,44.36H41.93a9.19,9.19,0,0,1-9.18-9.18V33.65h6.12a9.19,9.19,0,0,1,9.18,9.18ZM36,36.71a6.13,6.13,0,0,0,5.93,4.59H44.8a6.13,6.13,0,0,0-5.92-4.59Z" transform="translate(0)" fill="#fff"/><path d="M47.86,11.79v-3h-3v-3h-3V9.18a2.83,2.83,0,0,0-3,3.06v1.53a3,3,0,0,0,3.07,3h2.93v2h-6v3h3v3h3V21.41a2.83,2.83,0,0,0,3-3.06V16.83a2.88,2.88,0,0,0-2.87-3H41.86v-2Z" transform="translate(0)" fill="#fff"/></svg>
