<svg xmlns="http://www.w3.org/2000/svg" width="104.88" height="97" viewBox="0 0 104.88 97"><path d="M89.39,97H64a2.31,2.31,0,0,1-2.31-2.31v-30H43.2v30A2.31,2.31,0,0,1,40.89,97H15.49a2.31,2.31,0,0,1-2.31-2.31V48.5H17.8V92.38H38.59v-30A2.31,2.31,0,0,1,40.89,60H64a2.31,2.31,0,0,1,2.31,2.31v30H87.09V48.5H91.7V94.69A2.31,2.31,0,0,1,89.39,97Z" fill="#004963"/><path d="M101.62,54.75,52.44,5.58,3.27,54.75,0,51.49,50.81.68a2.31,2.31,0,0,1,3.27,0l50.81,50.81Z" fill="#004963"/><path d="M22.42,25.4H17.8V4.62a2.31,2.31,0,0,1,2.31-2.31H31.66A2.31,2.31,0,0,1,34,4.62v9.24H29.35V6.93H22.42Z" fill="#004963"/><rect x="35.63" y="68.06" width="34.46" height="22.35" transform="translate(-26.37 132.1) rotate(-90)" fill="#004963"/></svg>
