<svg xmlns="http://www.w3.org/2000/svg" width="97" height="97" viewBox="0 0 97 97"><path d="M26.91 11.58a1.08 1.08 0 0 1-1.08-1.08V8.36a1.08 1.08 0 0 1 2.16 0V10.5A1.08 1.08 0 0 1 26.91 11.58Z" fill="#5c813e"/><path d="M26.91 20.71a1.08 1.08 0 0 1-1.08-1.08V17.48a1.08 1.08 0 0 1 2.16 0v2.14A1.08 1.08 0 0 1 26.91 20.71Z" fill="#5c813e"/><path d="M34.15 11.58a1.08 1.08 0 0 1-1.08-1.08V8.36a1.08 1.08 0 0 1 2.16 0V10.5A1.08 1.08 0 0 1 34.15 11.58Z" fill="#5c813e"/><path d="M34.15 20.71a1.08 1.08 0 0 1-1.08-1.08V17.48a1.08 1.08 0 0 1 2.16 0v2.14A1.08 1.08 0 0 1 34.15 20.71Z" fill="#5c813e"/><path d="M41.39 11.58a1.08 1.08 0 0 1-1.08-1.08V8.36a1.08 1.08 0 1 1 2.16 0V10.5A1.08 1.08 0 0 1 41.39 11.58Z" fill="#5c813e"/><path d="M41.39 20.71a1.08 1.08 0 0 1-1.08-1.08V17.48a1.08 1.08 0 0 1 2.16 0v2.14A1.08 1.08 0 0 1 41.39 20.71Z" fill="#5c813e"/><path d="M26.91 29.44a1.08 1.08 0 0 1-1.08-1.08V26.21a1.08 1.08 0 1 1 2.16 0v2.14A1.08 1.08 0 0 1 26.91 29.44Z" fill="#5c813e"/><path d="M26.91 38.56a1.08 1.08 0 0 1-1.08-1.08V35.34a1.08 1.08 0 0 1 2.16 0v2.14A1.08 1.08 0 0 1 26.91 38.56Z" fill="#5c813e"/><path d="M34.15 29.44a1.08 1.08 0 0 1-1.08-1.08V26.21a1.08 1.08 0 1 1 2.16 0v2.14A1.08 1.08 0 0 1 34.15 29.44Z" fill="#5c813e"/><path d="M34.15 38.56a1.08 1.08 0 0 1-1.08-1.08V35.34a1.08 1.08 0 0 1 2.16 0v2.14A1.08 1.08 0 0 1 34.15 38.56Z" fill="#5c813e"/><path d="M41.39 29.44a1.08 1.08 0 0 1-1.08-1.08V26.21a1.08 1.08 0 1 1 2.16 0v2.14A1.08 1.08 0 0 1 41.39 29.44Z" fill="#5c813e"/><path d="M26.91 47.57a1.08 1.08 0 0 1-1.08-1.08V44.34a1.08 1.08 0 1 1 2.16 0v2.14A1.08 1.08 0 0 1 26.91 47.57Z" fill="#5c813e"/><path d="M26.91 56.69a1.08 1.08 0 0 1-1.08-1.08V53.47a1.08 1.08 0 0 1 2.16 0v2.14A1.08 1.08 0 0 1 26.91 56.69Z" fill="#5c813e"/><path d="M34.15 47.57a1.08 1.08 0 0 1-1.08-1.08V44.34a1.08 1.08 0 1 1 2.16 0v2.14A1.08 1.08 0 0 1 34.15 47.57Z" fill="#5c813e"/><path d="M34.15 56.69a1.08 1.08 0 0 1-1.08-1.08V53.47a1.08 1.08 0 0 1 2.16 0v2.14A1.08 1.08 0 0 1 34.15 56.69Z" fill="#5c813e"/><path d="M34.15 65.42a1.08 1.08 0 0 1-1.08-1.08V62.2a1.08 1.08 0 1 1 2.16 0v2.14A1.08 1.08 0 0 1 34.15 65.42Z" fill="#5c813e"/><path d="M34.15 74.53a1.08 1.08 0 0 1-1.08-1.08V71.31a1.08 1.08 0 1 1 2.16 0v2.14A1.08 1.08 0 0 1 34.15 74.53Z" fill="#5c813e"/><path d="M20.42 91.8a1.08 1.08 0 0 1-1.08-1.08V77.9a1.08 1.08 0 0 1 2.16 0V90.72A1.08 1.08 0 0 1 20.42 91.8Z" fill="#5c813e"/><path d="M20.42 53.81a1.08 1.08 0 0 1-1.08-1.08V3.46A3.46 3.46 0 0 1 22.8 0H45.52A3.46 3.46 0 0 1 49 3.46V33.83a1.08 1.08 0 0 1-2.16 0V3.46a1.3 1.3 0 0 0-1.3-1.29H22.8a1.3 1.3 0 0 0-1.3 1.29V52.73A1.08 1.08 0 0 1 20.42 53.81Z" fill="#5c813e"/><path d="M70.49 86.32a1.08 1.08 0 0 1-1.08-1.08v-13a1.08 1.08 0 0 1 2.16 0v13A1.08 1.08 0 0 1 70.49 86.32Z" fill="#5c813e"/><path d="M41.21 80.18a1.08 1.08 0 0 1-1.08-1.08V37a3.46 3.46 0 0 1 3.46-3.46H68.11A3.46 3.46 0 0 1 71.57 37V50.69a1.08 1.08 0 0 1-2.16 0V37a1.3 1.3 0 0 0-1.3-1.29H43.58A1.3 1.3 0 0 0 42.29 37V79.1A1.08 1.08 0 0 1 41.21 80.18Z" fill="#5c813e"/><path d="M14.46 80A14.45 14.45 0 1 1 28.91 65.57 14.47 14.47 0 0 1 14.46 80Zm0-26.73A12.28 12.28 0 1 0 26.75 65.57 12.3 12.3 0 0 0 14.46 53.29Z" fill="#5c813e"/><path d="M18.93 97a1.08 1.08 0 0 1-1.08-1.08 9.76 9.76 0 0 1 8.69-9.73 11.21 11.21 0 0 1 20.15-3.35 9.43 9.43 0 0 1 4.89-1.37c3 0 6 0.37 7.79 3.05a1.08 1.08 0 1 1-1.79 1.21c-1.18-1.75-3.25-2.1-6-2.1A7.16 7.16 0 0 0 47 85.24a1.08 1.08 0 0 1-1.64-0.34 9 9 0 0 0-16.92 2.54 1.08 1.08 0 0 1-1.08h-0.14A7.52 7.52 0 0 0 20 95.92 1.08 1.08 0 0 1 18.93 97Z" fill="#5c813e"/><path d="M14.46 97a1.08 1.08 0 0 1-1.08-1.08V65.57a1.08 1.08 0 1 1 2.16 0V95.92A1.08 1.08 0 0 1 14.46 97Z" fill="#5c813e"/><path d="M15.16 72.38a1.08 1.08 0 0 1 0-2.16A2.84 2.84 0 0 0 18 67.38a1.08 1.08 0 1 1 2.16 0A5 5 0 0 1 15.16 72.38Z" fill="#5c813e"/><path d="M13.34 72.38a4.92 4.92 0 0 1-4.83-5 1.08 1.08 0 1 1 2.16 0 2.76 2.76 0 0 0 2.67 2.84 1.08 1.08 0 0 1 0 2.16Z" fill="#5c813e"/><path d="M81.33 77.39A15.66 15.66 0 1 1 97 61.73 15.68 15.68 0 0 1 81.33 77.39Zm0-29.15a13.5 13.5 0 1 0 13.51 13.5A13.52 13.52 0 0 0 81.33 48.23Z" fill="#5c813e"/><path d="M81.33 88.32a1.08 1.08 0 0 1-1.08-1.08V62.81a1.08 1.08 0 1 1 2.16 0V87.24A1.08 1.08 0 0 1 81.33 88.32Z" fill="#5c813e"/><path d="M82.1 70.14a1.08 1.08 0 1 1 0-2.16 3.2 3.2 0 0 0 3.2-3.19 1.08 1.08 0 1 1 2.16 0A5.36 5.36 0 0 1 82.1 70.14Z" fill="#5c813e"/><path d="M80.11 70.14a5.27 5.27 0 0 1-5.17-5.36 1.08 1.08 0 1 1 2.16 0 3.11 3.11 0 0 0 3 3.19 1.08 1.08 0 0 1 0 2.16Z" fill="#5c813e"/><path d="M83 97a1.08 1.08 0 0 1-1-1.49 6.86 6.86 0 0 0 0.23-4.61 7.24 7.24 0 0 0-9-4.9 7.15 7.15 0 0 0-3.91 2.82 1.08 1.08 0 0 1-1.67 9 9 0 0 0-9.08-2.42 8.69 8.69 0 0 0-6.44 9.27A1.08 1.08 0 1 1 50 96a10.82 10.82 0 0 1 8-11.58 11.17 11.17 0 0 1 10.35 2.16 9.4 9.4 0 0 1 16 3.67 9 9 0 0 1-0.3 6A1.08 1.08 0 0 1 83 97Z" fill="#5c813e"/><path d="M95.92 97H1.08a1.08 1.08 0 0 1 0-2.16H95.92a1.08 1.08 0 1 1 0 2.16Z" fill="#5c813e"/><path d="M48.61 47.55a1.08 1.08 0 0 1-1.08-1.08V41a1.08 1.08 0 1 1 2.16 0v5.42A1.08 1.08 0 0 1 48.61 47.55Z" fill="#5c813e"/><path d="M55.84 47.55a1.08 1.08 0 0 1-1.08-1.08V41a1.08 1.08 0 1 1 2.16 0v5.42A1.08 1.08 0 0 1 55.84 47.55Z" fill="#5c813e"/><path d="M63.08 47.55A1.08 1.08 0 0 1 62 46.47V41a1.08 1.08 0 1 1 2.16 0v5.42A1.08 1.08 0 0 1 63.08 47.55Z" fill="#5c813e"/><path d="M48.61 56.71a1.08 1.08 0 0 1-1.08-1.08V53.48a1.08 1.08 0 1 1 2.16 0v2.14A1.08 1.08 0 0 1 48.61 56.71Z" fill="#5c813e"/><path d="M55.85 56.71a1.08 1.08 0 0 1-1.08-1.08V53.48a1.08 1.08 0 1 1 2.16 0v2.14A1.08 1.08 0 0 1 55.85 56.71Z" fill="#5c813e"/><path d="M63.08 56.71A1.08 1.08 0 0 1 62 55.63V53.48a1.08 1.08 0 1 1 2.16 0v2.14A1.08 1.08 0 0 1 63.08 56.71Z" fill="#5c813e"/><path d="M48.61 66.12A1.08 1.08 0 0 1 47.53 65V62.89a1.08 1.08 0 0 1 2.16 0V65A1.08 1.08 0 0 1 48.61 66.12Z" fill="#5c813e"/><path d="M55.85 66.12A1.08 1.08 0 0 1 54.76 65V62.89a1.08 1.08 0 0 1 2.16 0V65A1.08 1.08 0 0 1 55.85 66.12Z" fill="#5c813e"/><path d="M63.08 66.12A1.08 1.08 0 0 1 62 65V62.89a1.08 1.08 0 0 1 2.16 0V65A1.08 1.08 0 0 1 63.08 66.12Z" fill="#5c813e"/><path d="M48.61 75.33a1.08 1.08 0 0 1-1.08-1.08V72.1a1.08 1.08 0 0 1 2.16 0v2.14A1.08 1.08 0 0 1 48.61 75.33Z" fill="#5c813e"/><path d="M55.85 75.33a1.08 1.08 0 0 1-1.08-1.08V72.1a1.08 1.08 0 0 1 2.16 0v2.14A1.08 1.08 0 0 1 55.85 75.33Z" fill="#5c813e"/><path d="M63.08 75.33A1.08 1.08 0 0 1 62 74.25V72.1a1.08 1.08 0 0 1 2.16 0v2.14A1.08 1.08 0 0 1 63.08 75.33Z" fill="#5c813e"/></svg>
