<svg xmlns="http://www.w3.org/2000/svg" width="97.87" height="97" viewBox="0 0 97.87 97"><rect x="47.19" y="62.92" width="3.5" height="25.34"/><path d="M67.29,32.33H64.18V30.78A7.78,7.78,0,0,0,56.41,23H40.88a7.78,7.78,0,0,0-7.77,7.77v1.55H30V30.78A10.89,10.89,0,0,1,40.88,19.9H56.41A10.89,10.89,0,0,1,67.29,30.78Z"/><rect x="17.48" y="69.91" width="3.5" height="27.09"/><path d="M19.23,26.22A8.74,8.74,0,1,1,28,17.48,8.75,8.75,0,0,1,19.23,26.22Zm0-14a5.24,5.24,0,1,0,5.24,5.24A5.25,5.25,0,0,0,19.23,12.23Z"/><path d="M31.46,97H28V62.92h7V40.2a7,7,0,0,0-7-7H10.49a7,7,0,0,0-7,7V62.92h7V97H7V66.41H0V40.2A10.5,10.5,0,0,1,10.49,29.71H28A10.5,10.5,0,0,1,38.45,40.2V66.41h-7Z"/><rect x="76.9" y="69.91" width="3.5" height="27.09"/><path d="M78.65,26.22a8.74,8.74,0,1,1,8.74-8.74A8.75,8.75,0,0,1,78.65,26.22Zm0-14a5.24,5.24,0,1,0,5.24,5.24A5.25,5.25,0,0,0,78.65,12.23Z"/><path d="M90.88,97h-3.5V62.92h7V40.2a7,7,0,0,0-7-7H69.91a7,7,0,0,0-7,7V62.92h7V97h-3.5V66.41h-7V40.2A10.5,10.5,0,0,1,69.91,29.71H87.39A10.5,10.5,0,0,1,97.87,40.2V66.41h-7Z"/><rect x="47.19" y="27.96" width="3.5" height="3.5"/><rect x="76.9" y="36.7" width="3.5" height="3.5"/><rect x="17.48" y="36.7" width="3.5" height="3.5"/><rect x="34.95" y="64.25" width="3.5" height="24.01"/><rect x="59.42" y="64.25" width="3.5" height="24.01"/><path d="M49.81,17.48a8.74,8.74,0,1,1,8.74-8.74A8.75,8.75,0,0,1,49.81,17.48Zm0-14a5.24,5.24,0,1,0,5.24,5.24A5.25,5.25,0,0,0,49.81,3.5Z"/></svg>
