<svg id="_ÎÓÈ_1" data-name=" ÎÓÈ 1" xmlns="http://www.w3.org/2000/svg" width="16" height="16" viewBox="0 0 16 16"><title>icon-donate-gray</title><path d="M8.23,7.15c-.61-.06-1-.12-1-.55s.42-.46.84-.46a2.31,2.31,0,0,1,1.45.42l.87-1.1a3.3,3.3,0,0,0-1.61-.68V4H7.27v.8c-1,.19-1.81.76-1.81,1.8,0,1.54,1.17,1.88,2.52,2,.68.06,1,.26,1,.57s-.4.55-1,.55A2.48,2.48,0,0,1,6.22,9l-1,1.1a3.06,3.06,0,0,0,2,1.05V12H8.75v-.86h0c1.1-.19,2-.8,2-2C10.74,7.77,9.46,7.28,8.23,7.15Z" fill="#737373"/><path d="M8,16a8,8,0,1,1,8-8A8,8,0,0,1,8,16ZM8,1.81A6.19,6.19,0,1,0,14.19,8h0A6.2,6.2,0,0,0,8,1.81Z" fill="#737373"/></svg>