<svg xmlns="http://www.w3.org/2000/svg" width="105.15" height="97" viewBox="0 0 105.15 97"><path d="M2.87,29.94H102.3a2.87,2.87,0,0,0,1-5.54L53.83.3a2.87,2.87,0,0,0-2.56,0L1.61,24.49a2.87,2.87,0,0,0,1.26,5.45Z" fill="#004963"/><path d="M102.27,91.26H2.87a2.87,2.87,0,1,0,0,5.74h99.4a2.87,2.87,0,0,0,0-5.74Z" fill="#004963"/><path d="M5.54,84.68a2.87,2.87,0,0,0,2.87,2.87H96.67a2.87,2.87,0,0,0,0-5.74H8.48a2.87,2.87,0,0,0-2.94,2.8S5.54,84.66,5.54,84.68Z" fill="#004963"/><path d="M15.58,46V75.23a2.87,2.87,0,0,0,5.74,0h0V46a2.87,2.87,0,0,0-5.74,0Z" fill="#004963"/><path d="M26.63,36.52a2.87,2.87,0,0,0-2.87-2.87H13.11a2.87,2.87,0,1,0,0,5.74H23.77A2.87,2.87,0,0,0,26.63,36.52Z" fill="#004963"/><path d="M38.33,46V75.23a2.87,2.87,0,0,0,5.74,0h0V46a2.87,2.87,0,0,0-5.74,0Z" fill="#004963"/><path d="M49.4,36.52a2.87,2.87,0,0,0-2.87-2.87H35.86a2.87,2.87,0,0,0,0,5.74H46.52a2.87,2.87,0,0,0,2.88-2.85Z" fill="#004963"/><path d="M61.08,46V75.23a2.87,2.87,0,0,0,5.74,0h0V46a2.87,2.87,0,0,0-5.74,0Z" fill="#004963"/><path d="M72.15,36.52a2.87,2.87,0,0,0-2.87-2.87H58.63a2.87,2.87,0,0,0,0,5.74H69.28A2.87,2.87,0,0,0,72.15,36.52Z" fill="#004963"/><path d="M83.84,46V75.23a2.87,2.87,0,0,0,5.74,0V46a2.87,2.87,0,0,0-5.74,0Z" fill="#004963"/><path d="M94.9,36.52A2.87,2.87,0,0,0,92,33.65H81.38a2.87,2.87,0,0,0,0,5.74H92A2.87,2.87,0,0,0,94.9,36.52Z" fill="#004963"/></svg>
