<svg xmlns="http://www.w3.org/2000/svg" width="95.61" height="97" viewBox="0 0 95.61 97"><path d="M77,70.76V62.23H51.88V46.75H77V39L95.61,54.89Zm-21.29-12H80.91v3.62l8.74-7.47-8.74-7.47v3.21H55.75Z" fill="#004963"/><path d="M69.29,96.88,49.53,81.2,69.29,65.52v8.31H92.5V89.31H69.29ZM55.75,81.2l9.67,7.67V85.44H88.63v-7.8H65.42v-4.1Z" fill="#004963"/><path d="M35.74,97c-14.1,0-22-1.46-27.31-5C2.6,88,0,81.41,0,70.53,0,56.61,10.22,38.31,20.1,28.64l1.07-1,1.28.77c2,1.18,6,1.94,10.31,1.94,5,0,8.91-1,10.52-1.94l1.28-.77,1.07,1A75.79,75.79,0,0,1,55.91,41.9L52.65,44a77.41,77.41,0,0,0-8.77-11.61,30.8,30.8,0,0,1-11.12,1.8,29.49,29.49,0,0,1-10.92-1.8c-10.15,10.46-18,26.95-18,38.15,0,9.59,2,15,6.74,18.23,4.54,3.06,12.05,4.37,25.14,4.37,7.91,0,14.1-.75,18.61-4.4l2.43,3C50.8,96.59,42.79,97,35.74,97Z" fill="#004963"/><path d="M33.9,59.45c-2.82-1-5.42-2.14-5.32-3.91,0-1.09,1.36-2.26,4.33-2.26a13.38,13.38,0,0,1,5.51,1.15L40,50.92a17.14,17.14,0,0,0-5.66-1.42v-5H30.51v5.13c-3.95.77-5.79,3.38-5.79,5.77-.28,4.79,5,6.66,7.9,7.67,3.91,1.37,5.75,2.25,5.75,4.35,0,3.48-4.17,4-6.66,4a11.93,11.93,0,0,1-5.25-1.15l-2,3.31a14.59,14.59,0,0,0,6.06,1.66v4.92h3.87V75.14c5.74-.83,7.86-4.35,7.86-7.68C42.24,62.38,37.62,60.76,33.9,59.45Z" fill="#004963"/><path d="M32.8,26.52c-4.88,0-8.85-1.22-11.16-3.42l-.32-.31-.16-.42c-.18-.48-4.39-11.76-5.5-15.87L14.47,2.05l4,2.26a12.83,12.83,0,0,0,6.38,1.85C28,6.17,30.93,4.78,34,3.3,37.35,1.68,40.83,0,45,0a16.25,16.25,0,0,1,6.16,1.24l1.74.7-.65,1.76a203.26,203.26,0,0,1-8.65,19.64l-.23.45-.43.28C40.5,25.7,37.08,26.52,32.8,26.52Zm-8.18-6c1.65,1.33,4.59,2.08,8.18,2.08,3.94,0,6.28-.79,7.63-1.55.95-1.88,4.47-9,7.5-16.86A11.77,11.77,0,0,0,45,3.87c-3.3,0-6.24,1.42-9.35,2.92C32.35,8.38,28.93,10,24.87,10a15.06,15.06,0,0,1-4.23-.61C22,13.59,24,19,24.62,20.56Z" fill="#004963"/><polygon points="66.41 70.97 52.41 81.41 66.91 91.13 66.41 86.61 90.66 87.48 91.91 76.6 67.66 75.6 66.41 70.97" fill="#004963"/></svg>
