<svg id="_ÎÓÈ_1" data-name="—ÎÓÈ_1" xmlns="http://www.w3.org/2000/svg" width="32.39" height="31" viewBox="0 0 32.39 31"><title>icon-linkedin</title><path d="M4.3.5a3.85,3.85,0,0,0-2.75,1A3.29,3.29,0,0,0,.5,4a3.35,3.35,0,0,0,1,2.49,3.69,3.69,0,0,0,2.7,1h0A3.85,3.85,0,0,0,7,6.49,3.23,3.23,0,0,0,8.06,4a3.41,3.41,0,0,0-1-2.5A3.74,3.74,0,0,0,4.3.5Z" fill="#e8e8e8" stroke="#fff" stroke-miterlimit="10"/><rect x="0.89" y="10.25" width="6.74" height="20.25" fill="#e8e8e8" stroke="#fff" stroke-miterlimit="10"/><path d="M24.14,9.78a8.1,8.1,0,0,0-2.34.32A5.31,5.31,0,0,0,20,11,8.7,8.7,0,0,0,18.87,12a8.86,8.86,0,0,0-.8,1.08V10.25H11.35l0,1q0,1,0,6t0,13.22h6.72V19.2a4.93,4.93,0,0,1,.23-1.66,4.34,4.34,0,0,1,1.3-1.75,3.31,3.31,0,0,1,2.16-.71,2.91,2.91,0,0,1,2.59,1.22,5.91,5.91,0,0,1,.83,3.36V30.5h6.72V18.89q0-4.48-2.13-6.79A7.26,7.26,0,0,0,24.14,9.78Z" fill="#e8e8e8" stroke="#fff" stroke-miterlimit="10"/></svg>