<svg xmlns="http://www.w3.org/2000/svg" width="80.5" height="97" viewBox="0 0 80.5 97"><path d="M40.19,33.08A11.38,11.38,0,1,1,51.56,21.7h0A11.39,11.39,0,0,1,40.19,33.08Zm0-18.62a7.25,7.25,0,1,0,7.25,7.25A7.25,7.25,0,0,0,40.19,14.45Z" fill="#5c813e"/><path d="M40.19,59.85A11.38,11.38,0,1,1,51.55,48.46s0,0,0,0A11.39,11.39,0,0,1,40.19,59.85Zm0-18.62a7.25,7.25,0,1,0,7.23,7.27A7.25,7.25,0,0,0,40.19,41.23Z" fill="#5c813e"/><path d="M40.19,86.73A11.38,11.38,0,1,1,51.56,75.36h0A11.39,11.39,0,0,1,40.19,86.73Zm0-18.62a7.25,7.25,0,1,0,7.25,7.25h0A7.26,7.26,0,0,0,40.19,68.11Z" fill="#5c813e"/><path d="M55.72,97h-31a8.31,8.31,0,0,1-8.31-8.31V8.31A8.31,8.31,0,0,1,24.76,0h31A8.31,8.31,0,0,1,64,8.31V88.69A8.31,8.31,0,0,1,55.72,97Zm-31-92.84a4.16,4.16,0,0,0-4.16,4.16V88.69a4.16,4.16,0,0,0,4.16,4.16h31a4.16,4.16,0,0,0,4.16-4.16V8.31a4.16,4.16,0,0,0-4.16-4.16Z" fill="#5c813e"/><path d="M70.17,28.89H68.11V24.74h2.06c5.54,0,6.19-7.22,6.19-10.32H61.91V10.25H78.43a2.06,2.06,0,0,1,2.06,2.06h0v2.06C80.5,25.1,75.16,28.89,70.17,28.89Z" fill="#5c813e"/><path d="M69.4,55.72H68.11V51.56H69.4c4.52,0,6.93-1.65,6.93-10.32H61.91V37.08H78.43a2.06,2.06,0,0,1,2.06,2.06h0v2.06C80.5,48,79.22,55.72,69.4,55.72Z" fill="#5c813e"/><path d="M70.17,82.55H68.11V78.39h2.06c5.54,0,6.19-7.22,6.19-10.32H61.91V63.91H78.43A2.06,2.06,0,0,1,80.5,66h0V68C80.5,78.76,75.16,82.55,70.17,82.55Z" fill="#5c813e"/><path d="M12.39,28.89H10.32C5.33,28.89,0,25.1,0,14.45V12.39a2.06,2.06,0,0,1,2.06-2.06h16.5v4.16H4.16c0,3.1.61,10.32,6.19,10.32h2Z" fill="#5c813e"/><path d="M12.39,55.72H10.32C5.33,55.72,0,51.92,0,41.28V39.22a2.06,2.06,0,0,1,2.06-2.06h16.5v4.16H4.16c0,3.1.61,10.32,6.19,10.32h2Z" fill="#5c813e"/><path d="M12.39,82.55H10.32C5.33,82.55,0,78.76,0,68.11V66A2.06,2.06,0,0,1,2.06,64h16.5v4.16H4.16c0,3.1.61,10.32,6.19,10.32h2Z" fill="#5c813e"/><circle cx="39.49" cy="21.98" r="9.53" fill="#5c813e"/></svg>
