<svg xmlns="http://www.w3.org/2000/svg" width="94.8" height="97" viewBox="0 0 94.8 97"><path d="M24.52,47.23a3.64,3.64,0,1,0,0,7.25,3.64,3.64,0,1,0,0-7.25Zm27.35-21a47.94,47.94,0,0,0-21.52,5.15l-.71.36A23.6,23.6,0,0,0,17,27a4.29,4.29,0,0,0-3.53,1.39c-1.55,1.94-.33,5.08,3.35,11.54a23.24,23.24,0,0,0-6.22,7.82,17.76,17.76,0,0,1-6.23.9H4.17A3.62,3.62,0,0,0,1,50.43C-1,53.7.29,61,2.7,65.55,4.42,68.79,11,73.74,23.31,81.14l.14.08V97H36.32l3.35-7.83a48.23,48.23,0,0,0,12.19,1.55,74.51,74.51,0,0,0,16.45-2.05L71.46,97h12l2.3-18a28.74,28.74,0,0,0,9-20.42C94.8,41.34,74.74,26.28,51.87,26.28ZM82.42,76.41l-.54.51L79.81,92.83H74.34l-3.53-9.18-1.86.56a67,67,0,0,1-17.12,2.33A43.83,43.83,0,0,1,39,84.67l-1.79-.54-3.68,8.71H27.63V79l-.81-.62c-.08,0-.57-.37-1.39-.85C10.58,68.65,7.12,65,6.39,63.6c-2.22-4.08-2.6-9.5-1.94-10.86a20.23,20.23,0,0,0,8.61-1.55l.71-.32.32-.71a19,19,0,0,1,6.68-8l1.62-1.1-1-1.69a59.7,59.7,0,0,1-4.17-8.21c3.26,0,9.72,2.65,12.5,6.51l3.89,5.55-.19-8.72a43.83,43.83,0,0,1,18.45-4.17c20.64,0,38.75,13.11,38.75,28a24.77,24.77,0,0,1-8.25,18Z" fill="#fff"/><path d="M69.24,24.36a16.17,16.17,0,1,0-28.18-.5A72.19,72.19,0,0,1,56.16,22.1,72.85,72.85,0,0,1,69.24,24.36Z" fill="#fff"/></svg>
