<svg id="_ÎÓÈ_1" data-name="—ÎÓÈ_1" xmlns="http://www.w3.org/2000/svg" width="31.18" height="27" viewBox="0 0 31.18 27"><title>icon-vimeo</title><path d="M25,.63A5.87,5.87,0,0,0,23.91,1a9.77,9.77,0,0,0-1.53.81,12.87,12.87,0,0,0-1.72,1.29,9.71,9.71,0,0,0-1.59,1.87,9.91,9.91,0,0,0-1.19,2.44,4.81,4.81,0,0,1,3,.43q.9.61.71,2.64a11.6,11.6,0,0,1-1.39,3.82,9,9,0,0,1-1.9,2.64A1.6,1.6,0,0,1,16,16.53a4.78,4.78,0,0,1-1-1.72,9.9,9.9,0,0,1-.51-1.95q-.12-.87-.27-2.24T14,8.71q-.61-3.44-.91-4.38a6.46,6.46,0,0,0-.95-1.84A2.69,2.69,0,0,0,10.8,1.43a4.33,4.33,0,0,0-3.39.67A25,25,0,0,0,3.77,4.92,39.94,39.94,0,0,1,.5,7.65v.19a1.56,1.56,0,0,1,.68.69q.25.48.57.53a3.26,3.26,0,0,0,1.45-.23,4.35,4.35,0,0,1,1.55-.28,1.37,1.37,0,0,1,1.11.8,5.77,5.77,0,0,1,.49,1q.2.55.4,1.28t.33,1.08q.45,1.23,1.41,5A44.24,44.24,0,0,0,10,23a5.84,5.84,0,0,0,2.75,3.34,4.36,4.36,0,0,0,2.27,0,7.1,7.1,0,0,0,2-.84,23.25,23.25,0,0,0,6.67-6.33,40.72,40.72,0,0,0,4.6-7.81,31.65,31.65,0,0,0,2.2-6A4.25,4.25,0,0,0,30,1.83Q28.6.09,25,.63Z" fill="#e8e8e8" stroke="#fff" stroke-miterlimit="10"/></svg>