<?xml version="1.0" encoding="UTF-8"?>
<svg width="16px" height="18px" viewBox="0 0 16 18" version="1.1" xmlns="http://www.w3.org/2000/svg" xmlns:xlink="http://www.w3.org/1999/xlink">
    <title>bell</title>
    <g id="Page-1" stroke="none" stroke-width="1" fill="none" fill-rule="evenodd">
        <g id="Small_menu_button_02" transform="translate(-1250.000000, -18.000000)" fill="#FFFFFF" fill-rule="nonzero">
            <g id="Group-7" transform="translate(-1.000000, 0.000000)">
                <g id="Group-3" transform="translate(371.000000, 0.000000)">
                    <g id="Group-2" transform="translate(869.000000, 8.000000)">
                        <g id="bell-outline-(1)" transform="translate(11.000000, 10.000000)">
                            <path d="M11.7,13.5 L3.6,13.5 L3.6,7.65 C3.6,5.4 5.4,3.6 7.65,3.6 C9.9,3.6 11.7,5.4 11.7,7.65 M13.5,12.6 L13.5,7.65 C13.5,4.887 11.574,2.574 9,1.962 L9,1.35 C9,0.604415588 8.39558441,0 7.65,0 C6.90441559,0 6.3,0.604415588 6.3,1.35 L6.3,1.962 C3.717,2.574 1.8,4.887 1.8,7.65 L1.8,12.6 L0,14.4 L0,15.3 L15.3,15.3 L15.3,14.4 M7.65,18 C8.64411255,18 9.45,17.1941125 9.45,16.2 L5.85,16.2 C5.85,17.1941125 6.65588745,18 7.65,18 Z" id="bell" fill="#737373"></path>
                        </g>
                    </g>
                </g>
            </g>
        </g>
    </g>
</svg>