<svg xmlns="http://www.w3.org/2000/svg" width="100.27" height="97" viewBox="0 0 100.27 97"><path d="M98.84,43.7a38.41,38.41,0,0,0,0-20.78A32.76,32.76,0,0,0,80.55,2.2a24.22,24.22,0,0,0-10-2.2C61.63,0,54.46,5.17,50.13,9.36,45.79,5.17,38.65,0,29.7,0a24.22,24.22,0,0,0-10,2.2A32.76,32.76,0,0,0,1.49,22.88,38.45,38.45,0,0,0,1.4,43.75V44A53.49,53.49,0,0,0,8.06,58.81C21.83,80.56,45.92,94.92,46.94,95.57l1.77,1a2.77,2.77,0,0,0,2.84,0l1.76-1c1-.6,25.07-14.9,38.88-36.72A53.53,53.53,0,0,0,98.77,44,2,2,0,0,0,98.84,43.7ZM87.47,55.82c-13.09,20.68-36,34.32-37,34.89l-.35.21-.35-.21c-1-.57-23.95-14.27-37-34.89A49.74,49.74,0,0,1,7.87,45.71H31.68A2.77,2.77,0,0,0,34.24,44l6.44-14.79L52.1,65.8a2.77,2.77,0,0,0,2.41,2h.26a2.77,2.77,0,0,0,2.47-1.47L68.31,45.71H92.4A49.77,49.77,0,0,1,87.47,55.82Z" fill="#004963"/></svg>
