<svg id="Layer_1" data-name="Layer 1" xmlns="http://www.w3.org/2000/svg" width="107.04" height="35" viewBox="0 0 107.04 35"><defs><style>.cls-1{fill:#0194d3;}.cls-2{fill:#679146;}.cls-3{fill:#004a64;}.cls-4{isolation:isolate;}</style></defs><title>logo-sm</title><rect class="cls-1" y="21.16" width="6.43" height="4.53"/><rect class="cls-2" x="36.73" width="6.43" height="35"/><rect class="cls-2" x="29.39" y="4.13" width="6.43" height="26.37"/><rect class="cls-3" x="22.04" y="9.18" width="6.43" height="16.51"/><rect class="cls-3" x="14.69" y="16.72" width="6.43" height="8.97"/><rect class="cls-1" x="7.35" y="14.62" width="6.43" height="11.07"/><g class="cls-4"><path class="cls-3" d="M65.88,20.65a0.75,0.75,0,0,1,.56.25L68,22.59a8.57,8.57,0,0,1-3.19,2.46,11,11,0,0,1-4.54.85A10.73,10.73,0,0,1,56,25.1a9.38,9.38,0,0,1-3.23-2.25,9.86,9.86,0,0,1-2.05-3.44A12.93,12.93,0,0,1,50,15a11.77,11.77,0,0,1,.79-4.39A9.92,9.92,0,0,1,56.5,5a11.88,11.88,0,0,1,4.44-.8,10.49,10.49,0,0,1,4.14.76,9.69,9.69,0,0,1,3,2L66.79,8.76a1.19,1.19,0,0,1-.3.31A0.85,0.85,0,0,1,66,9.2a1.16,1.16,0,0,1-.69-0.26,8.52,8.52,0,0,0-.9-0.57A7.3,7.3,0,0,0,63,7.79,8,8,0,0,0,58.15,8,6.13,6.13,0,0,0,56,9.54a6.87,6.87,0,0,0-1.41,2.36A9.07,9.07,0,0,0,54.06,15a9.32,9.32,0,0,0,.51,3.19,7,7,0,0,0,1.38,2.36A5.86,5.86,0,0,0,58,22a6.31,6.31,0,0,0,2.53.51A11.08,11.08,0,0,0,62,22.46a6.25,6.25,0,0,0,1.21-.28,5.38,5.38,0,0,0,1-.49,6.45,6.45,0,0,0,1-.74,1.4,1.4,0,0,1,.31-0.21A0.78,0.78,0,0,1,65.88,20.65Z"/><path class="cls-3" d="M71,25.67V4.38h7.35a13.93,13.93,0,0,1,3.57.4,6.79,6.79,0,0,1,2.43,1.13A4.39,4.39,0,0,1,85.72,7.7a6,6,0,0,1,.44,2.35,4.64,4.64,0,0,1-.22,1.44,4.13,4.13,0,0,1-.68,1.28,5.11,5.11,0,0,1-1.18,1.08,7.12,7.12,0,0,1-1.7.82q4.39,1,4.39,4.74a6,6,0,0,1-.52,2.5,5.52,5.52,0,0,1-1.5,2,7.17,7.17,0,0,1-2.43,1.3,10.63,10.63,0,0,1-3.3.47H71Zm4-12.07h3.16a5.3,5.3,0,0,0,3.06-.74,2.66,2.66,0,0,0,1-2.34,2.77,2.77,0,0,0-.94-2.37,4.92,4.92,0,0,0-2.94-.71H74.95V13.6Zm0,2.74v6.24h4a5.55,5.55,0,0,0,1.85-.27A3.21,3.21,0,0,0,82,21.61a2.59,2.59,0,0,0,.65-1,3.91,3.91,0,0,0,.2-1.25,3.32,3.32,0,0,0-.22-1.24,2.33,2.33,0,0,0-.69-0.94,3.22,3.22,0,0,0-1.21-.6A6.66,6.66,0,0,0,79,16.34h-4Z"/><path class="cls-3" d="M104.8,20.65a0.75,0.75,0,0,1,.56.25l1.56,1.69a8.57,8.57,0,0,1-3.19,2.46,11,11,0,0,1-4.54.85,10.73,10.73,0,0,1-4.26-.81,9.38,9.38,0,0,1-3.23-2.25,9.84,9.84,0,0,1-2.05-3.44A12.92,12.92,0,0,1,88.93,15a11.76,11.76,0,0,1,.79-4.39A9.92,9.92,0,0,1,95.42,5a11.88,11.88,0,0,1,4.44-.8,10.49,10.49,0,0,1,4.14.76,9.69,9.69,0,0,1,3,2l-1.33,1.84a1.19,1.19,0,0,1-.3.31,0.85,0.85,0,0,1-.51.13,1.16,1.16,0,0,1-.69-0.26,8.52,8.52,0,0,0-.9-0.57,7.3,7.3,0,0,0-1.38-.57A8,8,0,0,0,97.06,8,6.13,6.13,0,0,0,94.9,9.54a6.87,6.87,0,0,0-1.41,2.36A9.07,9.07,0,0,0,93,15a9.32,9.32,0,0,0,.51,3.19,7,7,0,0,0,1.38,2.36,5.86,5.86,0,0,0,2,1.46,6.31,6.31,0,0,0,2.53.51,11.08,11.08,0,0,0,1.46-.09,6.25,6.25,0,0,0,1.21-.28,5.38,5.38,0,0,0,1-.49,6.45,6.45,0,0,0,1-.74,1.4,1.4,0,0,1,.31-0.21A0.78,0.78,0,0,1,104.8,20.65Z"/></g><rect class="cls-2" x="44.08" y="30.5" width="6.43" height="4.5"/></svg>