<svg xmlns="http://www.w3.org/2000/svg" width="58.34" height="70" viewBox="0 0 58.34 70"><title>icon-topic-city-budget</title><g id="Layer_1" data-name="Layer 1"><path d="M42.29,70H16a1.46,1.46,0,0,1-1.46-1.46V26.25A1.46,1.46,0,0,1,16,24.79H42.29a1.46,1.46,0,0,1,1.46,1.46V68.54A1.46,1.46,0,0,1,42.29,70ZM17.5,67.08H40.83V27.71H17.5Z" fill="#fff"/><path d="M39.38,27.71H19a1.46,1.46,0,0,1-1.46-1.46V19A1.46,1.46,0,0,1,19,17.5H39.38A1.46,1.46,0,0,1,40.83,19v7.32A1.46,1.46,0,0,1,39.38,27.71Zm-19-2.92h17.5V20.42H20.42Z" fill="#fff"/><path d="M33.54,20.42H24.79A1.46,1.46,0,0,1,23.33,19V11.67a1.46,1.46,0,0,1,1.46-1.46h8.75A1.46,1.46,0,0,1,35,11.67V19A1.46,1.46,0,0,1,33.54,20.42ZM26.25,17.5h5.83V13.13H26.25Z" fill="#fff"/><rect x="21.88" y="32.08" width="14.58" height="2.92" fill="#fff"/><rect x="21.88" y="40.83" width="14.58" height="2.92" fill="#fff"/><rect x="21.88" y="49.58" width="14.58" height="2.92" fill="#fff"/><rect x="21.88" y="58.33" width="14.58" height="2.92" fill="#fff"/><path d="M1.33,39.33v29H14.67v-29Zm8.88,19H7.29V55.42h2.92Zm0-5.84H7.29V49.58h2.92Zm0-5.83H7.29V43.75h2.92Z" fill="#fff"/><path d="M56.88,70H42.29V67.08H55.42V30.63H42.29V27.71H56.88a1.46,1.46,0,0,1,1.46,1.46V68.54A1.46,1.46,0,0,1,56.88,70Z" fill="#fff"/><rect x="48.13" y="42.29" width="2.92" height="4.38" fill="#fff"/><rect x="48.13" y="35" width="2.92" height="4.38" fill="#fff"/><rect x="48.13" y="49.58" width="2.92" height="4.38" fill="#fff"/><rect x="48.13" y="58.33" width="2.92" height="4.38" fill="#fff"/><rect x="27.71" width="2.92" height="11.67" fill="#fff"/><path d="M55.42,29.17H52.5V23.33H39.38V20.42H54a1.46,1.46,0,0,1,1.46,1.46Z" fill="#fff"/><path d="M14.58,70H1.46A1.46,1.46,0,0,1,0,68.54V38.65a1.46,1.46,0,0,1,1.46-1.46H15.31a1.46,1.46,0,0,1,1.3.81l.73,1.46-2.61,1.3-.33-.65H2.92v27H14.58Z" fill="#fff"/></g></svg>