<svg id="Layer_1" data-name="Layer 1" xmlns="http://www.w3.org/2000/svg" width="127.78" height="42" viewBox="0 0 127.78 42"><title>cbcny-logo-mobile</title><rect y="25.39" width="7.72" height="5.44" fill="#0194d3"/><rect x="44.08" width="7.72" height="42" fill="#679146"/><rect x="35.26" y="4.95" width="7.72" height="31.65" fill="#679146"/><rect x="26.45" y="11.01" width="7.72" height="19.82" fill="#004a64"/><rect x="17.63" y="20.07" width="7.72" height="10.76" fill="#004a64"/><rect x="8.82" y="17.55" width="7.72" height="13.28" fill="#0194d3"/><path d="M79.3,24.78a1,1,0,0,1,.69.3l1.87,2A10.3,10.3,0,0,1,78,30.06a13.18,13.18,0,0,1-5.45,1,12.88,12.88,0,0,1-5.11-1,11.26,11.26,0,0,1-3.88-2.7,11.82,11.82,0,0,1-2.46-4.13A15.5,15.5,0,0,1,60.28,18a14.6,14.6,0,0,1,.92-5.27,12.12,12.12,0,0,1,2.59-4.12,11.72,11.72,0,0,1,4-2.69,13.21,13.21,0,0,1,5.12-1,12.58,12.58,0,0,1,5,.92,11.81,11.81,0,0,1,3.68,2.4l-1.59,2.21a1.44,1.44,0,0,1-.36.37A1,1,0,0,1,79,11a1.17,1.17,0,0,1-.55-.15q-.28-.15-.62-.37L77,10a6.48,6.48,0,0,0-1-.49,8.37,8.37,0,0,0-1.35-.37A9.34,9.34,0,0,0,72.87,9a7.88,7.88,0,0,0-3.14.61,6.8,6.8,0,0,0-2.45,1.77,8.14,8.14,0,0,0-1.59,2.83A11.83,11.83,0,0,0,65.14,18a11.19,11.19,0,0,0,.61,3.83,8.42,8.42,0,0,0,1.65,2.83,7,7,0,0,0,2.46,1.76,7.58,7.58,0,0,0,3,.61,13.13,13.13,0,0,0,1.76-.11,7.47,7.47,0,0,0,1.45-.34A6.44,6.44,0,0,0,77.35,26a7.87,7.87,0,0,0,1.17-.89,1.69,1.69,0,0,1,.37-.26A.91.91,0,0,1,79.3,24.78Z" fill="#004a64"/><path d="M93.57,5.26a16.79,16.79,0,0,1,4.29.48,8.17,8.17,0,0,1,2.92,1.36,5.27,5.27,0,0,1,1.67,2.14,7.19,7.19,0,0,1,.53,2.83,5.57,5.57,0,0,1-.26,1.72,5,5,0,0,1-.82,1.54,6.13,6.13,0,0,1-1.41,1.3,8.53,8.53,0,0,1-2,1q5.26,1.18,5.26,5.69a7.25,7.25,0,0,1-.62,3,6.63,6.63,0,0,1-1.8,2.38,8.62,8.62,0,0,1-2.91,1.56,12.73,12.73,0,0,1-4,.57H84.78V5.26Zm-4,3.67v7.38h3.78A6.35,6.35,0,0,0,97,15.43a3.2,3.2,0,0,0,1.25-2.81A3.33,3.33,0,0,0,97.1,9.78a5.91,5.91,0,0,0-3.53-.85Zm4.8,18.16a6.73,6.73,0,0,0,2.23-.32A3.83,3.83,0,0,0,98,25.92a3.1,3.1,0,0,0,.78-1.24,4.67,4.67,0,0,0,.24-1.5,4,4,0,0,0-.26-1.49,2.8,2.8,0,0,0-.83-1.13,3.88,3.88,0,0,0-1.46-.71,8.1,8.1,0,0,0-2.15-.25H89.53v7.49Z" fill="#004a64"/><path d="M125.22,24.78a1,1,0,0,1,.69.3l1.87,2A10.3,10.3,0,0,1,124,30.06a13.18,13.18,0,0,1-5.45,1,12.88,12.88,0,0,1-5.11-1,11.26,11.26,0,0,1-3.88-2.7,11.82,11.82,0,0,1-2.46-4.13A15.5,15.5,0,0,1,106.2,18a14.6,14.6,0,0,1,.92-5.27,12.12,12.12,0,0,1,2.59-4.12,11.72,11.72,0,0,1,4-2.69,13.21,13.21,0,0,1,5.12-1,12.58,12.58,0,0,1,5,.92,11.81,11.81,0,0,1,3.68,2.4l-1.59,2.21a1.44,1.44,0,0,1-.36.37,1,1,0,0,1-.61.16,1.17,1.17,0,0,1-.55-.15q-.28-.15-.62-.37l-.78-.49a6.48,6.48,0,0,0-1-.49,8.37,8.37,0,0,0-1.35-.37A9.34,9.34,0,0,0,118.79,9a7.88,7.88,0,0,0-3.14.61,6.8,6.8,0,0,0-2.45,1.77,8.14,8.14,0,0,0-1.59,2.83,11.83,11.83,0,0,0-.57,3.81,11.19,11.19,0,0,0,.61,3.83,8.42,8.42,0,0,0,1.65,2.83,7,7,0,0,0,2.46,1.76,7.58,7.58,0,0,0,3,.61,13.13,13.13,0,0,0,1.76-.11,7.47,7.47,0,0,0,1.45-.34,6.44,6.44,0,0,0,1.25-.59,7.87,7.87,0,0,0,1.17-.89,1.69,1.69,0,0,1,.37-.26A.91.91,0,0,1,125.22,24.78Z" fill="#004a64"/><rect x="52.9" y="36.6" width="7.72" height="5.4" transform="translate(113.51 78.6) rotate(-180)" fill="#679146"/></svg>