<svg xmlns="http://www.w3.org/2000/svg" width="178" height="61" viewBox="0 0 380.8 130.45"><defs><style>.cls-1{fill:#0194d3;}.cls-2{fill:#679146;}.cls-3{fill:#004a64;}.cls-4{isolation:isolate;}</style></defs><rect class="cls-1" y="78.85" width="23.97" height="16.89"/><rect class="cls-2" x="136.91" width="23.97" height="130.45"/><rect class="cls-2" x="109.53" y="15.39" width="23.97" height="98.29"/><rect class="cls-3" x="82.14" y="34.2" width="23.97" height="61.55"/><rect class="cls-3" x="54.76" y="62.32" width="23.97" height="33.43"/><rect class="cls-1" x="27.38" y="54.5" width="23.97" height="41.25"/><g class="cls-4"><path class="cls-3" d="M205.11,32.29a0.75,0.75,0,0,1,.56.25l1.57,1.7a8.6,8.6,0,0,1-3.2,2.47,11,11,0,0,1-4.56.86,10.77,10.77,0,0,1-4.28-.81A9.42,9.42,0,0,1,192,34.49,9.9,9.9,0,0,1,189.89,31a13,13,0,0,1-.72-4.39,11.82,11.82,0,0,1,.8-4.41,10,10,0,0,1,5.71-5.71,11.92,11.92,0,0,1,4.46-.81,10.53,10.53,0,0,1,4.16.76,9.74,9.74,0,0,1,3.05,2L206,20.35a1.22,1.22,0,0,1-.3.31,0.86,0.86,0,0,1-.51.13,1.17,1.17,0,0,1-.7-0.27,8.42,8.42,0,0,0-.9-0.58,7.36,7.36,0,0,0-1.38-.58,8,8,0,0,0-4.89.26,6.15,6.15,0,0,0-2.17,1.5,6.9,6.9,0,0,0-1.42,2.37,9.12,9.12,0,0,0-.51,3.14,9.36,9.36,0,0,0,.51,3.21,7,7,0,0,0,1.38,2.36,5.89,5.89,0,0,0,2.05,1.47,6.35,6.35,0,0,0,2.54.51,11.17,11.17,0,0,0,1.47-.09,6.3,6.3,0,0,0,1.21-.28,5.37,5.37,0,0,0,1-.5,6.62,6.62,0,0,0,1-.75,1.39,1.39,0,0,1,.31-0.21A0.79,0.79,0,0,1,205.11,32.29Z"/><path class="cls-3" d="M214.72,37.33h-4V16h4V37.33Z"/><path class="cls-3" d="M234.58,16v3.27h-6.43V37.33h-4V19.22h-6.46V16h16.86Z"/><path class="cls-3" d="M241.58,37.33h-4V16h4V37.33Z"/><path class="cls-3" d="M261.66,16v1.46a2.15,2.15,0,0,1-.38,1.24l-11,15.49h11.08v3.18H245.15V35.76a1.59,1.59,0,0,1,.1-0.57,2.34,2.34,0,0,1,.27-0.51l11-15.56H245.84V16h15.81Z"/><path class="cls-3" d="M278.11,16v3.16h-9.47V25h7.46v3.06h-7.46v6h9.47v3.18H264.63V16h13.48Z"/><path class="cls-3" d="M284.08,16a1,1,0,0,1,.32.09,1.06,1.06,0,0,1,.27.19,3.12,3.12,0,0,1,.3.33l11.22,14.29q-0.06-.52-0.08-1c0-.33,0-0.64,0-0.92V16h3.5V37.33h-2.05a1.82,1.82,0,0,1-.78-0.15,1.74,1.74,0,0,1-.61-0.53L285,22.42q0,0.47.07,0.94t0,0.85V37.33h-3.5V16h2.08Z"/><path class="cls-3" d="M315.35,19.85a1.1,1.1,0,0,1-.38.46,0.94,0.94,0,0,1-.51.13,1.29,1.29,0,0,1-.67-0.23l-0.87-.51a7.23,7.23,0,0,0-1.17-.51,5,5,0,0,0-1.59-.23,4.68,4.68,0,0,0-1.44.2,3,3,0,0,0-1,.55,2.23,2.23,0,0,0-.63.85,2.79,2.79,0,0,0-.21,1.09,1.89,1.89,0,0,0,.42,1.26,3.51,3.51,0,0,0,1.12.86,10.3,10.3,0,0,0,1.58.64l1.81,0.6a17.38,17.38,0,0,1,1.81.74,6.26,6.26,0,0,1,1.58,1.06,4.8,4.8,0,0,1,1.12,1.57,5.46,5.46,0,0,1,.42,2.26,7.36,7.36,0,0,1-.5,2.71,6.24,6.24,0,0,1-1.45,2.2A6.82,6.82,0,0,1,312.44,37a8.58,8.58,0,0,1-3.15.54,10.16,10.16,0,0,1-2-.2,10.55,10.55,0,0,1-1.9-.57,9.9,9.9,0,0,1-1.7-.89,8.39,8.39,0,0,1-1.41-1.15l1.15-1.91a1.48,1.48,0,0,1,.39-0.35,1,1,0,0,1,.51-0.14,1.41,1.41,0,0,1,.8.3q0.43,0.3,1,.67a7.7,7.7,0,0,0,1.37.67,5.31,5.31,0,0,0,1.9.3,3.9,3.9,0,0,0,2.63-.81A2.89,2.89,0,0,0,313,31.2a2.14,2.14,0,0,0-.42-1.37,3.39,3.39,0,0,0-1.12-.89,8.38,8.38,0,0,0-1.58-.61q-0.89-.25-1.8-0.55a15.46,15.46,0,0,1-1.8-.71A5.83,5.83,0,0,1,304.67,26a4.92,4.92,0,0,1-1.12-1.66,6.33,6.33,0,0,1-.42-2.46A5.88,5.88,0,0,1,305,17.61a6.7,6.7,0,0,1,2.19-1.37,8,8,0,0,1,3-.52,10,10,0,0,1,3.49.59A7.87,7.87,0,0,1,316.33,18Z"/></g><g class="cls-4"><path class="cls-3" d="M190.42,66.42V45h7.38a13.94,13.94,0,0,1,3.58.4,6.84,6.84,0,0,1,2.44,1.14,4.43,4.43,0,0,1,1.4,1.79,6,6,0,0,1,.44,2.36,4.67,4.67,0,0,1-.22,1.44,4.17,4.17,0,0,1-.69,1.29,5.14,5.14,0,0,1-1.18,1.09,7.14,7.14,0,0,1-1.71.83q4.4,1,4.4,4.76a6.07,6.07,0,0,1-.52,2.51,5.55,5.55,0,0,1-1.51,2,7.21,7.21,0,0,1-2.44,1.31,10.66,10.66,0,0,1-3.31.47h-8.07Zm4-12.12h3.18a5.33,5.33,0,0,0,3.07-.74,2.68,2.68,0,0,0,1-2.35,2.78,2.78,0,0,0-.95-2.38,4.94,4.94,0,0,0-3-.71h-3.4V54.3Zm0,2.75v6.27h4a5.56,5.56,0,0,0,1.85-.27,3.21,3.21,0,0,0,1.2-.71,2.6,2.6,0,0,0,.65-1,3.9,3.9,0,0,0,.2-1.26,3.33,3.33,0,0,0-.22-1.25,2.34,2.34,0,0,0-.69-0.95,3.26,3.26,0,0,0-1.21-.6,6.72,6.72,0,0,0-1.79-.21h-4Z"/><path class="cls-3" d="M218.28,63.21a5.24,5.24,0,0,0,2.06-.38,4.29,4.29,0,0,0,1.54-1.08,4.72,4.72,0,0,0,1-1.68,6.94,6.94,0,0,0,.33-2.22V45h4v12.8a9.86,9.86,0,0,1-.61,3.52,8,8,0,0,1-1.77,2.79A8.06,8.06,0,0,1,222,66a10.71,10.71,0,0,1-7.39,0A7.83,7.83,0,0,1,210,61.37a9.86,9.86,0,0,1-.61-3.52V45h4V57.83a6.94,6.94,0,0,0,.33,2.22,4.85,4.85,0,0,0,1,1.69,4.18,4.18,0,0,0,1.53,1.09A5.24,5.24,0,0,0,218.28,63.21Z"/><path class="cls-3" d="M250.17,55.73a11.57,11.57,0,0,1-.78,4.32,9.69,9.69,0,0,1-5.62,5.59,12,12,0,0,1-4.42.78H231.2V45h8.16a11.9,11.9,0,0,1,4.42.79,10,10,0,0,1,3.41,2.2,9.85,9.85,0,0,1,2.2,3.38A11.57,11.57,0,0,1,250.17,55.73Zm-4.06,0a9.84,9.84,0,0,0-.47-3.16,6.68,6.68,0,0,0-1.35-2.36,5.79,5.79,0,0,0-2.12-1.49,7.3,7.3,0,0,0-2.82-.52H235.2v15h4.15a7.28,7.28,0,0,0,2.82-.52,5.79,5.79,0,0,0,2.12-1.49,6.67,6.67,0,0,0,1.35-2.36A9.84,9.84,0,0,0,246.11,55.73Z"/><path class="cls-3" d="M263.11,63.49a9.24,9.24,0,0,0,4.24-.92V58.69h-2.68a0.84,0.84,0,0,1-.61-0.21,0.7,0.7,0,0,1-.22-0.52V55.7H271v8.65a11.62,11.62,0,0,1-1.69,1,10.79,10.79,0,0,1-1.88.72,14.36,14.36,0,0,1-2.14.42,20,20,0,0,1-2.45.14,11.14,11.14,0,0,1-4.3-.81,10.1,10.1,0,0,1-5.64-5.72,11.69,11.69,0,0,1-.81-4.39,12.07,12.07,0,0,1,.78-4.42,9.74,9.74,0,0,1,5.72-5.71,12.65,12.65,0,0,1,4.61-.8,12,12,0,0,1,4.53.78,10.42,10.42,0,0,1,3.24,2l-1.15,1.8a1,1,0,0,1-.9.55,1.34,1.34,0,0,1-.72-0.24l-1-.56a6.65,6.65,0,0,0-1.09-.49,9,9,0,0,0-1.35-.34A9.88,9.88,0,0,0,263,48.2a7.37,7.37,0,0,0-2.86.53A6.05,6.05,0,0,0,258,50.25a6.87,6.87,0,0,0-1.39,2.38,9.33,9.33,0,0,0-.49,3.1,9.7,9.7,0,0,0,.52,3.29,6.89,6.89,0,0,0,1.45,2.43A6.24,6.24,0,0,0,260.3,63,7.37,7.37,0,0,0,263.11,63.49Z"/><path class="cls-3" d="M288.14,45v3.16h-9.47v5.93h7.46V57.2h-7.46v6h9.47v3.18H274.66V45h13.48Z"/><path class="cls-3" d="M306.65,45v3.27h-6.43V66.42h-4V48.31h-6.46V45h16.86Z"/></g><g class="cls-4"><path class="cls-3" d="M205.11,90.46a0.75,0.75,0,0,1,.56.25l1.57,1.7a8.6,8.6,0,0,1-3.2,2.47,11,11,0,0,1-4.56.86,10.77,10.77,0,0,1-4.28-.81A9.42,9.42,0,0,1,192,92.66a9.9,9.9,0,0,1-2.06-3.46,13,13,0,0,1-.72-4.39,11.82,11.82,0,0,1,.8-4.41,10,10,0,0,1,5.71-5.71,11.92,11.92,0,0,1,4.46-.81,10.53,10.53,0,0,1,4.16.76,9.74,9.74,0,0,1,3.05,2L206,78.52a1.22,1.22,0,0,1-.3.31,0.86,0.86,0,0,1-.51.13,1.17,1.17,0,0,1-.7-0.27,8.42,8.42,0,0,0-.9-0.58,7.36,7.36,0,0,0-1.38-.58,8,8,0,0,0-4.89.26,6.15,6.15,0,0,0-2.17,1.5,6.9,6.9,0,0,0-1.42,2.37,9.12,9.12,0,0,0-.51,3.14,9.36,9.36,0,0,0,.51,3.21,7,7,0,0,0,1.38,2.36,5.89,5.89,0,0,0,2.05,1.47,6.35,6.35,0,0,0,2.54.51,11.17,11.17,0,0,0,1.47-.09,6.3,6.3,0,0,0,1.21-.28,5.37,5.37,0,0,0,1-.5,6.62,6.62,0,0,0,1-.75,1.39,1.39,0,0,1,.31-0.21A0.79,0.79,0,0,1,205.11,90.46Z"/><path class="cls-3" d="M230.74,84.81a11.86,11.86,0,0,1-.78,4.35,10.33,10.33,0,0,1-2.2,3.47,10,10,0,0,1-3.42,2.28,12.33,12.33,0,0,1-8.85,0,10,10,0,0,1-3.43-2.28,10.26,10.26,0,0,1-2.21-3.47,12.49,12.49,0,0,1,0-8.71A10.26,10.26,0,0,1,212.06,77a10,10,0,0,1,3.43-2.28,11.57,11.57,0,0,1,4.43-.82,11.42,11.42,0,0,1,4.42.83A10.11,10.11,0,0,1,227.75,77a10.24,10.24,0,0,1,2.2,3.46A11.87,11.87,0,0,1,230.74,84.81Zm-4.08,0a10,10,0,0,0-.47-3.16,6.69,6.69,0,0,0-1.34-2.37,5.75,5.75,0,0,0-2.12-1.49,7.94,7.94,0,0,0-5.64,0A5.82,5.82,0,0,0,215,79.29a6.7,6.7,0,0,0-1.35,2.37,10.75,10.75,0,0,0,0,6.31A6.61,6.61,0,0,0,215,90.33a5.86,5.86,0,0,0,2.14,1.49,7.94,7.94,0,0,0,5.64,0,5.79,5.79,0,0,0,2.12-1.49A6.6,6.6,0,0,0,226.19,88,10,10,0,0,0,226.66,84.81Z"/><path class="cls-3" d="M245.07,87.62l0.42,1q0.21-.53.43-1t0.47-1l6.33-11.84a1.65,1.65,0,0,1,.24-0.35,0.76,0.76,0,0,1,.28-0.19,1.25,1.25,0,0,1,.35-0.07H257V95.5h-3.5V81.7q0-.38,0-0.84c0-.3,0-0.62.07-0.93L247.17,92a1.7,1.7,0,0,1-.58.64,1.49,1.49,0,0,1-.83.23h-0.55a1.5,1.5,0,0,1-.83-0.23,1.7,1.7,0,0,1-.58-0.64l-6.55-12.16q0.06,0.49.08,1t0,0.86V95.5h-3.5V74.13h3.46a1.25,1.25,0,0,1,.35.07,0.82,0.82,0,0,1,.29.19,1.5,1.5,0,0,1,.25.35l6.38,11.87Q244.85,87.1,245.07,87.62Z"/><path class="cls-3" d="M272.56,87.62l0.42,1q0.21-.53.43-1t0.47-1l6.33-11.84a1.65,1.65,0,0,1,.24-0.35,0.75,0.75,0,0,1,.28-0.19,1.25,1.25,0,0,1,.35-0.07h3.46V95.5H281V81.7q0-.38,0-0.84t0.07-.93L274.66,92a1.7,1.7,0,0,1-.58.64,1.5,1.5,0,0,1-.83.23h-0.55a1.49,1.49,0,0,1-.83-0.23,1.7,1.7,0,0,1-.58-0.64l-6.55-12.16q0.06,0.49.08,1t0,0.86V95.5h-3.5V74.13h3.46a1.25,1.25,0,0,1,.35.07,0.82,0.82,0,0,1,.29.19,1.5,1.5,0,0,1,.25.35l6.38,11.87Q272.34,87.1,272.56,87.62Z"/><path class="cls-3" d="M293.33,95.5h-4V74.13h4V95.5Z"/><path class="cls-3" d="M309.59,78a1.1,1.1,0,0,1-.38.46,0.94,0.94,0,0,1-.51.13,1.29,1.29,0,0,1-.67-0.23l-0.87-.51a7.23,7.23,0,0,0-1.17-.51,5,5,0,0,0-1.59-.23,4.68,4.68,0,0,0-1.44.2,3,3,0,0,0-1,.55,2.23,2.23,0,0,0-.63.85,2.79,2.79,0,0,0-.21,1.09,1.89,1.89,0,0,0,.42,1.26,3.51,3.51,0,0,0,1.12.86,10.3,10.3,0,0,0,1.58.64l1.81,0.6a17.38,17.38,0,0,1,1.81.74A6.26,6.26,0,0,1,309.41,85a4.8,4.8,0,0,1,1.12,1.57,5.46,5.46,0,0,1,.42,2.26,7.36,7.36,0,0,1-.5,2.71,6.24,6.24,0,0,1-1.45,2.2,6.82,6.82,0,0,1-2.33,1.48,8.58,8.58,0,0,1-3.15.54,10.16,10.16,0,0,1-2-.2,10.55,10.55,0,0,1-1.9-.57,9.9,9.9,0,0,1-1.7-.89,8.39,8.39,0,0,1-1.41-1.15L297.66,91a1.48,1.48,0,0,1,.39-0.35,1,1,0,0,1,.51-0.14,1.41,1.41,0,0,1,.8.3q0.43,0.3,1,.67a7.7,7.7,0,0,0,1.37.67,5.31,5.31,0,0,0,1.9.3,3.9,3.9,0,0,0,2.63-.81,2.89,2.89,0,0,0,.93-2.31,2.14,2.14,0,0,0-.42-1.37,3.39,3.39,0,0,0-1.12-.89,8.38,8.38,0,0,0-1.58-.61q-0.89-.25-1.8-0.55a15.46,15.46,0,0,1-1.8-.71,5.83,5.83,0,0,1-1.58-1.08,4.92,4.92,0,0,1-1.12-1.66,6.33,6.33,0,0,1-.42-2.46,5.88,5.88,0,0,1,1.83-4.24,6.7,6.7,0,0,1,2.19-1.37,8,8,0,0,1,3-.52,10,10,0,0,1,3.49.59,7.87,7.87,0,0,1,2.72,1.66Z"/><path class="cls-3" d="M325.45,78a1.1,1.1,0,0,1-.38.46,0.94,0.94,0,0,1-.51.13,1.29,1.29,0,0,1-.67-0.23L323,77.87a7.23,7.23,0,0,0-1.17-.51,5,5,0,0,0-1.59-.23,4.68,4.68,0,0,0-1.44.2,3,3,0,0,0-1,.55,2.23,2.23,0,0,0-.63.85,2.79,2.79,0,0,0-.21,1.09,1.89,1.89,0,0,0,.42,1.26,3.51,3.51,0,0,0,1.12.86,10.3,10.3,0,0,0,1.58.64l1.81,0.6a17.38,17.38,0,0,1,1.81.74A6.26,6.26,0,0,1,325.27,85a4.8,4.8,0,0,1,1.12,1.57,5.46,5.46,0,0,1,.42,2.26,7.36,7.36,0,0,1-.5,2.71,6.24,6.24,0,0,1-1.45,2.2,6.82,6.82,0,0,1-2.33,1.48,8.58,8.58,0,0,1-3.15.54,10.16,10.16,0,0,1-2-.2,10.55,10.55,0,0,1-1.9-.57,9.9,9.9,0,0,1-1.7-.89,8.39,8.39,0,0,1-1.41-1.15L313.52,91a1.48,1.48,0,0,1,.39-0.35,1,1,0,0,1,.51-0.14,1.41,1.41,0,0,1,.8.3q0.43,0.3,1,.67a7.7,7.7,0,0,0,1.37.67,5.31,5.31,0,0,0,1.9.3,3.9,3.9,0,0,0,2.63-.81,2.89,2.89,0,0,0,.93-2.31,2.14,2.14,0,0,0-.42-1.37,3.39,3.39,0,0,0-1.12-.89,8.38,8.38,0,0,0-1.58-.61q-0.89-.25-1.8-0.55a15.46,15.46,0,0,1-1.8-.71,5.83,5.83,0,0,1-1.58-1.08,4.92,4.92,0,0,1-1.12-1.66,6.33,6.33,0,0,1-.42-2.46A5.88,5.88,0,0,1,315,75.78a6.7,6.7,0,0,1,2.19-1.37,8,8,0,0,1,3-.52,10,10,0,0,1,3.49.59,7.87,7.87,0,0,1,2.72,1.66Z"/><path class="cls-3" d="M334.33,95.5h-4V74.13h4V95.5Z"/><path class="cls-3" d="M359.63,84.81a11.84,11.84,0,0,1-.78,4.35,10.31,10.31,0,0,1-2.2,3.47,10,10,0,0,1-3.41,2.28,12.33,12.33,0,0,1-8.85,0A10,10,0,0,1,341,92.63a10.26,10.26,0,0,1-2.21-3.47,12.49,12.49,0,0,1,0-8.71A10.26,10.26,0,0,1,341,77a10,10,0,0,1,3.43-2.28,11.57,11.57,0,0,1,4.43-.82,11.42,11.42,0,0,1,4.42.83A10.11,10.11,0,0,1,356.65,77a10.23,10.23,0,0,1,2.2,3.46A11.85,11.85,0,0,1,359.63,84.81Zm-4.08,0a10,10,0,0,0-.46-3.16,6.69,6.69,0,0,0-1.34-2.37,5.76,5.76,0,0,0-2.12-1.49,7.94,7.94,0,0,0-5.64,0,5.8,5.8,0,0,0-2.14,1.49,6.71,6.71,0,0,0-1.35,2.37,10.77,10.77,0,0,0,0,6.31,6.63,6.63,0,0,0,1.35,2.36A5.85,5.85,0,0,0,346,91.82a7.94,7.94,0,0,0,5.64,0,5.8,5.8,0,0,0,2.12-1.49A6.6,6.6,0,0,0,355.09,88,10,10,0,0,0,355.55,84.81Z"/><path class="cls-3" d="M365.29,74.15a1,1,0,0,1,.32.09,1.07,1.07,0,0,1,.27.19,3.12,3.12,0,0,1,.3.33L377.4,89.06q-0.06-.52-0.08-1c0-.33,0-0.64,0-0.92v-13h3.5V95.5h-2.05a1.82,1.82,0,0,1-.78-0.15,1.74,1.74,0,0,1-.61-0.53L366.18,80.59q0,0.47.07,0.94t0,0.85V95.5h-3.5V74.13h2.08Z"/></g><rect class="cls-2" x="164.29" y="113.67" width="23.97" height="16.77"/></svg>
