<svg xmlns="http://www.w3.org/2000/svg" width="71.28" height="97" viewBox="0 0 71.28 97"><path d="M63.51,97H7.77A7.78,7.78,0,0,1,0,89.23V7.77A7.78,7.78,0,0,1,7.77,0H63.51a7.78,7.78,0,0,1,7.77,7.77V89.23A7.78,7.78,0,0,1,63.51,97ZM7.77,2.68A5.1,5.1,0,0,0,2.68,7.77V89.23a5.1,5.1,0,0,0,5.09,5.09H63.51a5.1,5.1,0,0,0,5.09-5.09V7.77a5.1,5.1,0,0,0-5.09-5.09Z" fill="#004963"/><path d="M62.7,88.43H8.57V40.73H62.7ZM11.25,85.75H60V43.41H11.25Z" fill="#004963"/><path d="M62.7,34.83H8.57V10.72H62.7ZM11.25,32.15H60V13.4H11.25Z" fill="#004963"/><rect x="25.72" y="42.07" width="2.68" height="45.02" fill="#004963"/><rect x="42.87" y="42.07" width="2.68" height="45.02" fill="#004963"/><rect x="9.91" y="55.73" width="51.45" height="2.68" fill="#004963"/><rect x="9.91" y="70.74" width="34.3" height="2.68" fill="#004963"/></svg>
