<svg id="_ÎÓÈ_1" data-name="—ÎÓÈ_1" xmlns="http://www.w3.org/2000/svg" width="18" height="18" viewBox="0 0 18 18"><defs><style>.cls-1{fill:#fff;}.cls-2{fill:none;stroke:#fff;stroke-miterlimit:10;stroke-width:2px;}</style></defs><title>icon-donate</title><path class="cls-1" d="M9.26,8C8.57,8,8.1,7.9,8.1,7.42A0.79,0.79,0,0,1,9,6.9a2.61,2.61,0,0,1,1.63.48l1-1.25a3.72,3.72,0,0,0-1.81-.77V4.48H8.17V5.39a2.15,2.15,0,0,0-2,2C6.13,9.15,7.45,9.54,9,9.68c0.77,0.07,1.17.29,1.17,0.64s-0.45.62-1.1,0.62a2.8,2.8,0,0,1-2-.79L5.91,11.4a3.45,3.45,0,0,0,2.26,1.19v0.94H9.85v-1h0c1.24-.21,2.25-0.9,2.25-2.2C12.09,8.75,10.64,8.19,9.26,8Z"/><circle class="cls-2" cx="9" cy="9" r="8"/></svg>