<svg id="Layer_1" data-name="Layer 1" xmlns="http://www.w3.org/2000/svg" width="16" height="16" viewBox="0 0 16 16"><title>icon-download-pdf</title><path d="M6.57,9.62a1.09,1.09,0,0,1-.34.84,1.3,1.3,0,0,1-.92.27H5.06L5,11.8H4.12L4.2,8.54H5.33a1.38,1.38,0,0,1,.92.29A1,1,0,0,1,6.57,9.62ZM5.08,10h.16a.44.44,0,0,0,.32-.1.41.41,0,0,0,.12-.3q0-.33-.36-.34H5.1Z" fill="#007faa"/><path d="M9.85,10.23a1.69,1.69,0,0,1-.48,1.25,1.73,1.73,0,0,1-1.28.41L7,11.86,7.08,8.6H8.21A1.7,1.7,0,0,1,9.41,9,1.52,1.52,0,0,1,9.85,10.23Zm-.92,0a1,1,0,0,0-.16-.67.66.66,0,0,0-.53-.23H8v1.83h.2a.71.71,0,0,0,.59-.22A1.13,1.13,0,0,0,8.93,10.23Z" fill="#007faa"/><path d="M11.26,12h-.87l.08-3.26H12.4v.71H11.34v.62h1v.71h-1Z" fill="#007faa"/><polygon points="5.74 3.48 4.88 4.34 7.91 7.37 10.94 4.34 10.08 3.48 8.52 5.04 8.52 1 7.3 1 7.3 5.05 5.74 3.48" fill="#007faa"/><path d="M16,14.21V1.78A1.78,1.78,0,0,0,14.22,0H10.65V1.78h3.55V14.21H1.78V1.78H5.34V0H1.78A1.78,1.78,0,0,0,0,1.78H0V14.21A1.78,1.78,0,0,0,1.77,16H14.21A1.78,1.78,0,0,0,16,14.23S16,14.21,16,14.21Z" fill="#007faa"/></svg>