<svg id="Layer_1" data-name="Layer 1" xmlns="http://www.w3.org/2000/svg" xmlns:xlink="http://www.w3.org/1999/xlink" width="20.49" height="16" viewBox="0 0 20.49 16"><defs><style>.cls-1{fill:none;}.cls-2{clip-path:url(#clip-path);}.cls-3{fill:#fff;}</style><clipPath id="clip-path" transform="translate(0 0)"><rect class="cls-1" width="20.49" height="16"/></clipPath></defs><title>icon-contactus</title><g class="cls-2"><path class="cls-3" d="M0.79,0H19.71a0.79,0.79,0,0,1,.78.79V15.21a0.78,0.78,0,0,1-.78.79H0.79A0.78,0.78,0,0,1,0,15.21V0.79A0.79,0.79,0,0,1,.79,0M18.92,2.26h0L10.58,10.6a0.48,0.48,0,0,1-.67,0L1.58,2.26V14.43H18.92V2.26Zm-0.65-.68h-16l8,8Z" transform="translate(0 0)"/></g></svg>