<svg id="Layer_1" data-name="Layer 1" xmlns="http://www.w3.org/2000/svg" width="88.91" height="97" viewBox="0 0 88.91 97"><title>icon-topic-public-workforce-landing</title><path d="M64.66,38.4h-4V35.93c0-4.5-10.49-7.67-16.17-7.67s-16.16,3.16-16.16,7.67V38.4h-4V35.93c0-8.34,14.26-11.71,20.21-11.71s20.21,3.37,20.21,11.71Z" fill="#004963"/><path d="M40,97h-9a2,2,0,0,1-1.92-1.4l-6-18.8H11.71A11.72,11.72,0,0,1,0,65.09V40.82a8.49,8.49,0,0,1,8.48-8.48h.31a16.22,16.22,0,0,1,11.82,5.14l6.51,7H38.39a2,2,0,0,1,2,2.19c-.3,3.43-2.79,9.93-10.1,9.93H19.78A2,2,0,0,1,18.33,56l-.15-.15v4.8h8.05a10.12,10.12,0,0,1,9.53,6.78,1.93,1.93,0,0,1,.06.22L42,94.53A2,2,0,0,1,40,97Zm-7.48-4H37.5L31.91,68.65a6.07,6.07,0,0,0-5.68-4H16.16a2,2,0,0,1-2-2V51.7L8.46,45.89l2.89-2.83,9.28,9.49h9.68a5.69,5.69,0,0,0,5.54-4H26.24a2,2,0,0,1-1.48-.64l-7.11-7.62a12.17,12.17,0,0,0-8.87-3.86H8.48A4.44,4.44,0,0,0,4,40.82V65.09a7.68,7.68,0,0,0,7.67,7.67H24.62a2,2,0,0,1,1.92,1.4Z" fill="#004963"/><path d="M14.14,30.32A10.24,10.24,0,0,1,4,20.22v-2A10.24,10.24,0,0,1,14.14,8.08,10.24,10.24,0,0,1,24.25,18.2v2A10.11,10.11,0,0,1,14.14,30.32Zm0-18.2A6.15,6.15,0,0,0,8.08,18.2v2a6.14,6.14,0,0,0,6.06,6.06,6.14,6.14,0,0,0,6.06-6.06v-2A6.15,6.15,0,0,0,14.14,12.12Z" fill="#004963"/><path d="M57.45,97h-9a2,2,0,0,1-2-2.47l6.18-26.9a2.05,2.05,0,0,1,.06-.22,10.11,10.11,0,0,1,9.53-6.78h8.43V55.45l-.54.54a2,2,0,0,1-1.43.59H58.6c-7.31,0-9.8-6.49-10.1-9.93a2,2,0,0,1,2-2.19h10.9l6.51-7a16.21,16.21,0,0,1,11.82-5.14h.31a8.79,8.79,0,0,1,8.86,8.48V65.09A12.06,12.06,0,0,1,76.82,76.79H65.38l-6,18.8A2,2,0,0,1,57.45,97ZM51,93H56l6-18.8a2,2,0,0,1,1.92-1.4H76.82a8,8,0,0,0,8-7.67V40.82a4.76,4.76,0,0,0-4.81-4.44h-.31a12.16,12.16,0,0,0-8.87,3.86l-7.11,7.62a2,2,0,0,1-1.48.64H53.05a5.67,5.67,0,0,0,5.54,4h9.31L77.39,43l2.86,2.85-5.49,5.5V62.65a2,2,0,0,1-2,2H62.29a6.07,6.07,0,0,0-5.68,4Z" fill="#004963"/><path d="M74.76,30.32a10.11,10.11,0,0,1-10.1-10.1v-2a10.1,10.1,0,1,1,20.21,0v2A10.24,10.24,0,0,1,74.76,30.32Zm0-18.2A6.15,6.15,0,0,0,68.7,18.2v2a6.06,6.06,0,1,0,12.12,0v-2A6.15,6.15,0,0,0,74.76,12.12Z" fill="#004963"/><rect x="16.16" y="52.55" width="56.58" height="4.04" fill="#004963"/><path d="M44.45,22.24a10.24,10.24,0,0,1-10.1-10.1v-2a10.1,10.1,0,1,1,20.21,0v2A10.24,10.24,0,0,1,44.45,22.24Zm0-18.2a6.15,6.15,0,0,0-6.06,6.07v2a6.06,6.06,0,0,0,12.12,0v-2A6.15,6.15,0,0,0,44.45,4Z" fill="#004963"/></svg>