<svg xmlns="http://www.w3.org/2000/svg" width="121.7" height="97" viewBox="0 0 121.7 97"><style>.st0{fill:none;}.st1{fill:#004963;}.st2{fill:#FFFFFF;}</style><polygon class="st0" points="78 66.8 115.7 43.7 95.3 32.7 57.7 55.9 "/><polygon class="st0" points="24.7 38 24.7 38 15.4 33 "/><polygon class="st0" points="62.2 14.8 62.1 14.8 38.4 29.6 "/><path class="st0" d="M63.5 41.9c1.3-0.7 2.2-1.9 2.5-3.4 0.3-2.3-1.3-4.2-2.8-5.8 -0.5-0.5-0.9-1.1-1.3-1.7 0.6-0.3 2.6-0.7 5.4 0.8 1.2 0.6 2.2 1.4 3 2.4l3.9-2.7c-0.5-0.7-1.1-1.4-1.8-1.9l1.8-1.1 -2.5-4 -3.9 2.4c-2.6-1.2-5.7-1.2-8.3 0.1 -1.2 0.6-2.1 1.7-2.4 3.1 -0.4 2.2 1.1 4.2 2.6 5.8 0.6 0.6 1.1 1.2 1.5 1.9l-0.2 0.1c-2 1.2-5.1 0.9-8.4-0.9 -1.1-0.5-2-1.2-2.8-2.1l-4.2 2c0.5 0.9 1.2 1.8 2 2.4l-1.8 1.1 2.5 4 3.9-2.4 0 0c1.9 0.8 3.9 1.3 6 1.3C60.1 43.3 61.9 42.8 63.5 41.9z"/><path class="st1" d="M77 84.5h2.4l42.3-26 -2.5-4L78 79.7 55.4 67.5V60L77 71.6h2.4l42.3-26 -0.1-4.2L100 29.8l0.6-0.4 -0.1-4.1L72.2 9.9h-2.4l-3.1 2L44.7 0h-2.4L0 26l0.1 4.2 22.5 12.1v7.5L2.4 38.9 0.1 43l22.5 12.1v7.1L2.4 51.3l-2.2 4.2 22.5 12.1V71l1.2 2.1 28.1 15.1 3.5-2.1v-0.8L77 97h2.4l42.3-26 -2.5-4L78 92.2 55.4 80v-7.1L77 84.5zM115.7 43.7L78 66.8l-20.3-11 37.6-23.2L115.7 43.7zM24.7 38L15.4 33 6 27.9 43.7 4.8l18.5 10 0 0 0 0L38.4 29.6 24.7 38 24.7 38 24.7 38zM52.2 42L52.2 42l-3.9 2.4 -2.5-4 1.8-1.1c-0.8-0.7-1.5-1.5-2-2.4l4.2-2c0.8 0.9 1.7 1.6 2.8 2.1 3.3 1.8 6.5 2.1 8.4 0.9l0.2-0.1c-0.5-0.7-1-1.3-1.5-1.9 -1.5-1.6-3-3.6-2.6-5.8 0.3-1.3 1.1-2.5 2.4-3.1 2.6-1.3 5.7-1.3 8.3-0.1l3.9-2.4 2.5 4 -1.8 1.1c0.7 0.6 1.2 1.2 1.8 1.9l-3.9 2.7c-0.8-1-1.8-1.9-3-2.4 -2.8-1.5-4.8-1.1-5.4-0.8 0.4 0.6 0.8 1.2 1.3 1.7 1.5 1.6 3.1 3.5 2.8 5.8 -0.3 1.4-1.2 2.7-2.5 3.4 -1.6 0.9-3.4 1.4-5.3 1.4C56.2 43.2 54.1 42.8 52.2 42z"/><polygon class="st2" points="38.4 29.6 24.7 38 24.8 38 "/><polygon class="st2" points="62.1 14.8 43.7 4.8 62.1 14.8 "/><polygon class="st2" points="43.7 4.8 6 27.9 15.4 33 6 27.9 "/></svg>
