<svg id="_ÎÓÈ_1" data-name="—ÎÓÈ_1" xmlns="http://www.w3.org/2000/svg" width="37.93" height="29.08" viewBox="0 0 37.93 29.08"><title>icon-twitter</title><path d="M35.59,1.1A13.86,13.86,0,0,1,31.1,2.81a7.08,7.08,0,0,0-10.16-.16,6.81,6.81,0,0,0-2.07,5A7.83,7.83,0,0,0,19,9.26a19.68,19.68,0,0,1-8.13-2.18A20,20,0,0,1,4.48,1.87a6.92,6.92,0,0,0-1,3.57A6.89,6.89,0,0,0,4.37,8.8a7.06,7.06,0,0,0,2.3,2.52,7,7,0,0,1-3.19-.9v.09A6.83,6.83,0,0,0,5.08,15a7,7,0,0,0,4.06,2.44,7.29,7.29,0,0,1-1.86.24,8.91,8.91,0,0,1-1.33-.11,7.08,7.08,0,0,0,6.61,4.9,13.83,13.83,0,0,1-8.77,3,15.05,15.05,0,0,1-1.71-.09,19.62,19.62,0,0,0,10.85,3.17A20.65,20.65,0,0,0,20,27.39a18,18,0,0,0,5.64-3.19,21.37,21.37,0,0,0,4-4.6,20.52,20.52,0,0,0,2.53-5.44A20.08,20.08,0,0,0,33,8.48q0-.61,0-.92A14.8,14.8,0,0,0,36.55,3.9,14.07,14.07,0,0,1,32.48,5,6.86,6.86,0,0,0,35.59,1.1Z" fill="#e8e8e8" stroke="#fff" stroke-miterlimit="10"/></svg>