<svg xmlns="http://www.w3.org/2000/svg" width="105.65" height="97" viewBox="0 0 105.65 97"><path d="M68,83.07H15.27a4.82,4.82,0,0,0,0,9.64H68a4.82,4.82,0,0,0,0-9.64Zm0,8.47H15.27a3.65,3.65,0,0,1,0-7.3H68a3.65,3.65,0,0,1,0,7.3Z"/><circle cx="15.27" cy="87.89" r="2.55"/><circle cx="68.01" cy="87.89" r="2.55"/><path d="M64.48,57,59,44.06l-.5-1.16h0l-.07-.17-.25-.59L58,41.75l-.08-.18-.19-.43a.88.88,0,0,0-.81-.53H41.53a.88.88,0,0,0-.88.88V64.67a.88.88,0,0,0,.88.88H57.6a.88.88,0,0,0,.68-.32l6.08-7.36A.87.87,0,0,0,64.48,57ZM42.41,63.79V42.36H56.31l.16.38.15.35.5,1.16.5,1.16,5,11.77-5.48,6.63Z"/><path d="M100.78,30.17V28h3.31v-9h-3.31v-16l.07-.07a1.75,1.75,0,0,0-1.24-3H83.45a1.75,1.75,0,0,0-1.24.51L80.83,1.89,2.48,46.08H1.76A1.75,1.75,0,0,0,0,47.84V74.56a1.75,1.75,0,0,0,1.76,1.76H28.12v2.47H15.27a9.11,9.11,0,0,0,0,18.22H68a9.11,9.11,0,1,0,0-18.22H55.16V76.32h4.2a1.75,1.75,0,0,0,1.76-1.76V69l8.25-10a1.75,1.75,0,0,0,.26-1.81L62.72,41.12,98.44,5.41V19.06h-3.3v9h3.3v3.21h0a1.17,1.17,0,0,0,1.17,1.17A3.71,3.71,0,1,1,95.9,36.1a1.17,1.17,0,0,0-2.34,0,6,6,0,1,0,7.22-5.93Zm-3.3-5.3h4.27v.8H97.47Zm0-3.47h4.27v2.3H97.47ZM68,94.07H15.27a6.18,6.18,0,0,1,0-12.37H68a6.18,6.18,0,1,1,0,12.37ZM52.23,79.37H31V75.73H52.23Zm-21-6H2.93V69.58H58.19v3.81h-27ZM2.93,49H26.64v4.52H2.93Zm0,6.86H26.64v4.52H2.93Zm0,6.86H26.64v4.52H2.93Zm88-54.78v.83l-.48.48H84V2.93h6.91v5Zm-8.08,8.91-.48.48H76V10.9l.48-.48h6.43v6.42Zm-8.08,8.08-.49.48H67.88V19l.48-.48h6.43v6.42ZM66.7,33l-.49.49H59.8V27.06l.49-.49H66.7V33Zm8.08-20.1v4.43H69.53l5.26-5.26ZM66.71,21v4.43H61.45l5.25-5.25Zm-8.08,8.08v4.43H53.37l5.25-5.25Zm-6.32,5.6h6.32v1.91H52.3ZM82.86,4.82V9.25H77.61L82.86,4ZM60.78,38.1l-.35-.82a1.17,1.17,0,0,0-.64-.63v-2H65l-4,4ZM67.87,31V26.58h5.25l-5.25,5.25ZM76,22.93V18.5h5.25L76,23.75ZM84,14.85V10.42h5.26L84,15.68Zm-26,52.39H39V38.91H58.59l0,.08L59,40l.16.38,0,.1.5,1.16,0,.11.45,1,6.41,15-7.85,9.5ZM92.11,6.77V2.93h4.67L92.11,7.6ZM74.67,8.05,49.89,32.83a1.75,1.75,0,0,0-.51,1.24V36H37.79A1.76,1.76,0,0,0,36,37.74V66.66H29.57V47.84a1.75,1.75,0,0,0-1.76-1.76H7.25l67.42-38Z"/></svg>
