<svg id="Layer_1" data-name="Layer 1" xmlns="http://www.w3.org/2000/svg" width="80.84" height="97" viewBox="0 0 80.84 97"><title>icon-topic-city-budget-landing</title><g id="Layer_1-2" data-name="Layer 1"><path d="M58.6,97H22.17a2,2,0,0,1-2-2V36.38a2,2,0,0,1,2-2H58.6a2,2,0,0,1,2,2V95A2,2,0,0,1,58.6,97ZM24.25,93H56.58V38.4H24.25Z" fill="#004963"/><path d="M54.57,38.4H26.33a2,2,0,0,1-2-2v-10a2,2,0,0,1,2-2.08h28.3a2,2,0,0,1,2,2V36.47A2,2,0,0,1,54.57,38.4Zm-26.33-4H52.49V28.3H28.3Z" fill="#004963"/><path d="M46.48,28.3H34.35a2,2,0,0,1-2-2V16.17a2,2,0,0,1,2-2H46.48a2,2,0,0,1,2,2V26.33A2,2,0,0,1,46.48,28.3Zm-10.1-4h8.08V18.19H36.38Z" fill="#004963"/><rect x="30.32" y="44.45" width="20.2" height="4.05" fill="#004963"/><rect x="30.32" y="56.58" width="20.2" height="4.05" fill="#004963"/><rect x="30.32" y="68.7" width="20.2" height="4.05" fill="#004963"/><rect x="30.32" y="80.83" width="20.2" height="4.05" fill="#004963"/><path d="M1.84,54.5V94.69H20.33V54.5ZM14.15,80.83h-4v-4h4Zm0-8.09h-4v-4h4Zm0-8.08h-4v-4h4Z" fill="#004963"/><path d="M78.82,97H58.6V93H76.8V42.44H58.6v-4H78.82a2,2,0,0,1,2,2V95A2,2,0,0,1,78.82,97Z" fill="#004963"/><rect x="66.69" y="58.6" width="4.05" height="6.07" fill="#004963"/><rect x="66.69" y="48.5" width="4.05" height="6.07" fill="#004963"/><rect x="66.69" y="68.7" width="4.05" height="6.07" fill="#004963"/><rect x="66.69" y="80.83" width="4.05" height="6.07" fill="#004963"/><rect x="38.4" width="4.05" height="16.17" fill="#004963"/><path d="M76.8,40.42h-4V32.33H54.57v-4H74.83a2,2,0,0,1,2,2Z" fill="#004963"/><path d="M20.2,97H2a2,2,0,0,1-2-2V53.56a2,2,0,0,1,2-2H21.22A2,2,0,0,1,23,52.66l1,2-3.62,1.8-.46-.9H4V93H20.2Z" fill="#004963"/></g></svg>