<?xml version="1.0" standalone="no"?>
<!DOCTYPE svg PUBLIC "-//W3C//DTD SVG 20010904//EN"
 "http://www.w3.org/TR/2001/REC-SVG-20010904/DTD/svg10.dtd">
<svg version="1.0" xmlns="http://www.w3.org/2000/svg"
 width="270.000000pt" height="270.000000pt" viewBox="0 0 270.000000 270.000000"
 preserveAspectRatio="xMidYMid meet">
<metadata>
Created by potrace 1.11, written by Peter Selinger 2001-2013
</metadata>
<g transform="translate(0.000000,270.000000) scale(0.100000,-0.100000)"
fill="#000000" stroke="none">
<path d="M1963 1352 l0 -937 171 0 171 0 2 936 2 936 -173 1 -173 1 0 -937z"/>
<path d="M1570 1360 l0 -706 172 1 173 0 0 698 c0 385 -2 702 -5 706 -3 3 -80
6 -172 7 l-168 0 0 -706z"/>
<path d="M1179 1757 c-1 -58 -1 -775 0 -814 l1 -32 170 0 c170 -1 170 -1 171
21 1 29 1 839 0 854 -1 8 -51 12 -171 12 l-170 0 -1 -41z"/>
<path d="M401 1500 c-5 -3 -9 -137 -9 -297 l-1 -293 175 1 174 1 0 297 0 296
-165 0 c-91 0 -170 -2 -174 -5z"/>
<path d="M791 1390 c-5 -4 -8 -440 -2 -472 0 -5 78 -8 171 -8 129 0 170 3 171
13 0 13 0 418 -1 452 0 19 -7 20 -166 20 -91 0 -169 -2 -173 -5z"/>
<path d="M4 1036 l1 -121 171 -3 171 -3 1 125 1 125 -173 -1 -173 -1 1 -121z"/>
<path d="M2351 541 c0 -85 3 -120 12 -123 7 -2 84 -4 172 -4 l160 1 3 123 3
122 -175 0 -174 0 -1 -119z"/>
</g>
</svg>
